<?xml version="1.0" encoding="UTF-8" standalone="no"?>
<svg
   xmlns:dc="http://purl.org/dc/elements/1.1/"
   xmlns:cc="http://creativecommons.org/ns#"
   xmlns:rdf="http://www.w3.org/1999/02/22-rdf-syntax-ns#"
   xmlns:svg="http://www.w3.org/2000/svg"
   xmlns="http://www.w3.org/2000/svg"
   xmlns:sodipodi="http://sodipodi.sourceforge.net/DTD/sodipodi-0.dtd"
   xmlns:inkscape="http://www.inkscape.org/namespaces/inkscape"
   width="7.608in"
   height="5.897in"
   viewBox="0 0 7.608 5.897"
   version="1.1"
   preserveAspectRatio="xMidYMid meet"
   id="svg4550"
   sodipodi:docname="Ultrasonic-Housing.svg"
   inkscape:version="0.92.4 (5da689c313, 2019-01-14)">
  <metadata
     id="metadata4556">
    <rdf:RDF>
      <cc:Work
         rdf:about="">
        <dc:format>image/svg+xml</dc:format>
        <dc:type
           rdf:resource="http://purl.org/dc/dcmitype/StillImage" />
        <dc:title></dc:title>
      </cc:Work>
    </rdf:RDF>
  </metadata>
  <defs
     id="defs4554" />
  <sodipodi:namedview
     pagecolor="#ffffff"
     bordercolor="#666666"
     borderopacity="1"
     objecttolerance="10"
     gridtolerance="10"
     guidetolerance="10"
     inkscape:pageopacity="0"
     inkscape:pageshadow="2"
     inkscape:window-width="2560"
     inkscape:window-height="1538"
     id="namedview4552"
     showgrid="false"
     inkscape:zoom="0.70710678"
     inkscape:cx="969.61122"
     inkscape:cy="65.314019"
     inkscape:window-x="-8"
     inkscape:window-y="-8"
     inkscape:window-maximized="1"
     inkscape:current-layer="svg4550" />
  <flowRoot
     xml:space="preserve"
     id="flowRoot5155"
     style="font-style:normal;font-weight:normal;font-size:40px;line-height:1.25;font-family:sans-serif;letter-spacing:0px;word-spacing:0px;fill:#000000;fill-opacity:1;stroke:none"
     transform="matrix(0.01041667,0,0,0.01041667,0.02330679,-3.526762)"><flowRegion
       id="flowRegion5157"><rect
         id="rect5159"
         width="2272.0876"
         height="1016.9745"
         x="-302.26413"
         y="-656.45349" /></flowRegion><flowPara
       id="flowPara5161">Using</flowPara><flowPara
       id="flowPara5163">   https://en.makercase.com/#/basicbox</flowPara><flowPara
       id="flowPara5165" /><flowPara
       id="flowPara5167">Set box size to be:</flowPara><flowPara
       id="flowPara5169">  Width: 1.75&quot;</flowPara><flowPara
       id="flowPara5171">  Height: 1&quot;</flowPara><flowPara
       id="flowPara5173">  Depth: 2.4&quot;</flowPara><flowPara
       id="flowPara5175" /><flowPara
       id="flowPara5177">For the inside dimensions.</flowPara><flowPara
       id="flowPara5179">Material thickness is 1/4&quot; </flowPara><flowPara
       id="flowPara5181" /><flowPara
       id="flowPara6390">Finger size is 0.472&quot;</flowPara><flowPara
       id="flowPara6443">I tweaked from this point to support Tslots for the 'top'.</flowPara><flowPara
       id="flowPara6388" /><flowPara
       id="flowPara5183">When using TSlots the bolt diameter is #4 and length is 0.5&quot;.</flowPara><flowPara
       id="flowPara5185">Metric close equivalents are an M3 with 12mm length.</flowPara><flowPara
       id="flowPara5187" /><flowPara
       id="flowPara5189">The Kerf setting (which is shown as &quot;Kerf (Beam Diameter /2 )&quot;) is 0.005&quot;</flowPara><flowPara
       id="flowPara6643">(I tried 0.007&quot; but it was a little bit too tight.) </flowPara></flowRoot>  <path
     style="font-size:12px;vector-effect:non-scaling-stroke;fill:#e6e6e6;fill-rule:evenodd;stroke:#ff0000;stroke-width:0.01041667;stroke-linecap:round;stroke-miterlimit:4;stroke-dasharray:none"
     d="m -0.14736146,4.6609902 -0.003988,0.00399 v 0.5060019 l 0.003988,0.00401 H 0.0846332 v 0.4579875 h -0.23199466 l -0.003988,0.00401 v 0.5060019 l 0.003988,0.00401 h 0.40899669 l 0.004008,-0.00401 V 5.9109906 h 0.45800785 0.18509944 l 0.003886,-0.00389 v -0.064006 l -0.003988,-0.00401 H 0.84364636 V 5.745097 h 0.0650024 l 0.003988,-0.00401 V 5.6371054 H 1.033954 V 5.741089 l 0.00399,0.00401 H 1.102946 V 5.839093 H 1.037944 l -0.00399,0.00401 v 0.064006 l 0.00389,0.00391 h 0.1717937 0.4580079 v 0.2319948 l 0.00401,0.00401 h 0.4089967 l 0.00401,-0.00401 V 5.6369833 l -0.00401,-0.00401 H 1.8486515 V 5.1749878 h 0.2319947 l 0.00401,-0.00401 v -0.506 l -0.00401,-0.00399 H 1.6716495 l -0.00401,0.00399 V 4.8969929 H 1.2096336 V 4.6649778 l -0.00399,-0.00399 H 0.72763882 l -0.003988,0.00399 V 4.8969929 H 0.26564326 V 4.6649778 l -0.004008,-0.00399 z"
     id="front_outsideCutPath-9"
     inkscape:connector-curvature="0" />
  <path
     style="font-size:12px;vector-effect:non-scaling-stroke;fill:#777777;fill-rule:evenodd;stroke:#777777;stroke-width:0.25000001mm;stroke-linecap:round"
     id="front_labelLayer-1"
     d="m 1.1836405,5.5159846 h -0.025 v -0.103 a 0.068,0.068 0 0 0 0,-0.01 q -10e-4,-0.006 -0.003,-0.01 a 0.029,0.029 0 0 0 -0.005,-0.009 0.027,0.027 0 0 0 -0.011,-0.007 q -0.005,-0.001 -0.01,-0.002 a 0.064,0.064 0 0 0 -0.007,0 0.073,0.073 0 0 0 -0.014,9.99e-4 q -0.007,0.001 -0.013,0.005 a 0.034,0.034 0 0 0 -0.01,0.007 q -0.01,0.013 -0.011,0.04 a 0.155,0.155 0 0 0 0,0.005 v 0.083 h -0.024 v -0.159 h 0.019 l 0.004,0.022 h 0.001 a 0.049,0.049 0 0 1 0.019,-0.017 0.058,0.058 0 0 1 0.002,-0.001 q 0.013,-0.007 0.03,-0.007 a 0.095,0.095 0 0 1 0.016,0.002 q 0.009,0.001 0.016,0.004 a 0.043,0.043 0 0 1 0.011,0.008 0.042,0.042 0 0 1 0.01,0.016 q 0.003,0.007 0.004,0.015 a 0.105,0.105 0 0 1 0.001,0.013 z m -0.4629999,-0.159 v 0.019 h -0.041 v 0.140001 h -0.024 v -0.140001 h -0.028 v -0.011 l 0.028,-0.009 v -0.009 a 0.098,0.098 0 0 1 0.003,-0.022 q 0.008,-0.036 0.048,-0.036 a 0.078,0.078 0 0 1 0.011,0.001 q 0.009,10e-4 0.019,0.004 l -0.006,0.019 a 0.117,0.117 0 0 0 -0.009,-0.002 q -0.005,-0.001 -0.009,-0.002 a 0.052,0.052 0 0 0 -0.006,0 0.032,0.032 0 0 0 -0.008,0.001 0.021,0.021 0 0 0 -0.012,0.008 0.028,0.028 0 0 0 -0.004,0.007 q -0.003,0.009 -0.003,0.022 v 0.01 z m 0.5849999,0.139 v 0.019 a 0.024,0.024 0 0 1 -0.003,0.001 q -0.003,10e-4 -0.008,0.002 a 0.105,0.105 0 0 1 -0.007,10e-4 0.075,0.075 0 0 1 -0.006,0 q -0.038,0 -0.045,-0.031 a 0.076,0.076 0 0 1 -0.002,-0.017 v -0.095 h -0.023 v -0.012 l 0.023,-0.01 0.01,-0.034 h 0.014 v 0.037 h 0.046 v 0.019 h -0.046 v 0.094 q 0,0.014 0.007,0.022 a 0.022,0.022 0 0 0 0.013,0.007 0.032,0.032 0 0 0 0.005,0 q 0.006,0 0.012,-0.001 a 0.131,0.131 0 0 0 0.004,0 0.084,0.084 0 0 0 0.003,-10e-4 z m -0.465,-0.14 -0.003,0.022 a 0.106,0.106 0 0 0 -0.008,-10e-4 q -0.003,-0.001 -0.007,-0.001 a 0.056,0.056 0 0 0 -0.002,0 q -0.02,0 -0.033,0.016 a 0.055,0.055 0 0 0 -0.014,0.031 0.073,0.073 0 0 0 0,0.008 v 0.085 h -0.024 v -0.159 h 0.02 l 0.002,0.03 h 0.002 q 0.008,-0.016 0.021,-0.024 0.012,-0.009 0.027,-0.009 a 0.111,0.111 0 0 1 0.01,10e-4 0.081,0.081 0 0 1 0.009,0.001 z m 0.165,0.105 a 0.124,0.124 0 0 0 0.002,-0.024 q 0,-0.016 -0.003,-0.029 a 0.075,0.075 0 0 0 -0.016,-0.032 0.063,0.063 0 0 0 -0.03,-0.018 0.081,0.081 0 0 0 -0.023,-0.004 0.094,0.094 0 0 0 -0.017,0.002 0.064,0.064 0 0 0 -0.037,0.02 0.067,0.067 0 0 0 -0.008,0.011 q -0.007,0.011 -0.01,0.025 a 0.125,0.125 0 0 0 -0.002,0.025 0.121,0.121 0 0 0 0.002,0.019 0.089,0.089 0 0 0 0.007,0.024 0.079,0.079 0 0 0 0.002,0.004 0.065,0.065 0 0 0 0.024,0.025 0.067,0.067 0 0 0 0.015,0.007 0.077,0.077 0 0 0 0.023,0.003 0.094,0.094 0 0 0 0.016,-10e-4 0.064,0.064 0 0 0 0.038,-0.021 q 0.013,-0.014 0.017,-0.036 z m -0.119,-0.024 a 0.122,0.122 0 0 0 0.001,0.017 q 0.002,0.009 0.004,0.016 a 0.051,0.051 0 0 0 0.007,0.013 0.039,0.039 0 0 0 0.026,0.015 0.06,0.06 0 0 0 0.01,0.001 0.056,0.056 0 0 0 0.015,-0.002 0.039,0.039 0 0 0 0.021,-0.014 0.052,0.052 0 0 0 0.008,-0.016 q 0.004,-0.012 0.004,-0.03 0,-0.02 -0.005,-0.033 a 0.05,0.05 0 0 0 -0.007,-0.013 0.04,0.04 0 0 0 -0.024,-0.015 0.061,0.061 0 0 0 -0.012,-9.99e-4 0.057,0.057 0 0 0 -0.014,9.99e-4 0.038,0.038 0 0 0 -0.022,0.014 q -0.008,0.011 -0.011,0.031 a 0.127,0.127 0 0 0 -0.001,0.016 z m 0.416,0.06 q 0.002,0 0.003,-0.001"
     inkscape:connector-curvature="0" />
  <path
     style="font-size:12px;vector-effect:non-scaling-stroke;fill:#ececec;fill-rule:evenodd;stroke:#ff0000;stroke-width:0.01041667;stroke-linecap:round;stroke-miterlimit:4;stroke-dasharray:none"
     d="m -0.14736146,3.0499871 -0.003988,0.00401 v 0.5059816 l 0.003988,0.00401 H 0.0846332 v 0.458008 h -0.23199466 l -0.003988,0.00399 v 0.5060019 l 0.003988,0.00401 h 0.40899669 l 0.004008,-0.00401 V 4.2999875 h 0.45800785 0.18615735 l 0.002828,-0.00285 v -0.064005 l -0.003988,-0.00399 h -0.0650024 v -0.094015 h 0.0650024 l 0.003988,-0.00399 V 4.0271399 H 1.033954 v 0.1040039 l 0.00399,0.00399 h 0.065002 v 0.094015 H 1.037944 l -0.00399,0.00399 v 0.064005 l 0.00283,0.00287 h 0.1861574 0.4447022 v 0.2319946 l 0.00401,0.00401 h 0.4089967 l 0.00401,-0.00401 V 4.0259802 l -0.00401,-0.00399 H 1.8486515 v -0.458008 h 0.2319947 l 0.00401,-0.00401 V 3.053995 l -0.00401,-0.00401 H 1.6716495 l -0.00401,0.00401 V 3.2859898 H 1.2096336 V 3.053995 l -0.00399,-0.00401 H 0.72763882 l -0.003988,0.00401 V 3.2859898 H 0.26564326 V 3.053995 l -0.004008,-0.00401 z"
     id="back_outsideCutPath-4"
     inkscape:connector-curvature="0" />
  <path
     style="font-size:12px;vector-effect:non-scaling-stroke;fill:#333333;fill-rule:evenodd;stroke:#ff0000;stroke-width:0.02083333;stroke-linecap:round;stroke-miterlimit:4;stroke-dasharray:none"
     id="back_labelLayer-0"
     d="m 1.1696405,3.8229846 h 0.002 q 0.004,-0.007 0.013,-0.017 a 0.517,0.517 0 0 1 0.006,-0.006 l 0.051,-0.055 h 0.029 l -0.065,0.068 0.069,0.091 h -0.029 l -0.056,-0.075 -0.018,0.016 v 0.059 h -0.024 v -0.225 h 0.024 v 0.119 q 0,0.006 -0.001,0.016 a 0.788,0.788 0 0 1 -10e-4,0.008 z m -0.4869999,0.061 h -0.002 l -0.005,0.02 h -0.017 v -0.225 h 0.024 v 0.055 a 0.502,0.502 0 0 1 0,0.016 0.362,0.362 0 0 1 -0.001,0.016 l 0.001,10e-4 a 0.055,0.055 0 0 1 0.04,-0.024 0.082,0.082 0 0 1 0.01,0 0.074,0.074 0 0 1 0.021,0.003 0.055,0.055 0 0 1 0.028,0.018 0.071,0.071 0 0 1 0.012,0.024 q 0.003,0.01 0.004,0.022 a 0.155,0.155 0 0 1 0.001,0.015 0.141,0.141 0 0 1 -0.002,0.024 q -0.002,0.012 -0.007,0.022 a 0.068,0.068 0 0 1 -0.009,0.015 0.057,0.057 0 0 1 -0.04,0.021 0.082,0.082 0 0 1 -0.008,0 0.073,0.073 0 0 1 -0.018,-0.002 0.064,0.064 0 0 1 -0.01,-0.003 q -0.013,-0.006 -0.022,-0.018 z m 0.2739999,0.02 h -0.018 l -0.005,-0.022 h -0.001 a 0.1,0.1 0 0 1 -0.008,0.009 q -0.008,0.008 -0.016,0.011 a 0.056,0.056 0 0 1 -0.011,0.004 q -0.006,10e-4 -0.012,10e-4 a 0.108,0.108 0 0 1 -0.006,0 q -0.024,0 -0.037,-0.012 a 0.04,0.04 0 0 1 -0.012,-0.021 0.061,0.061 0 0 1 -0.002,-0.014 0.042,0.042 0 0 1 0.024,-0.039 q 0.019,-0.01 0.053,-0.011 l 0.027,-10e-4 v -0.01 a 0.069,0.069 0 0 0 0,-0.01 q -0.001,-0.005 -0.003,-0.009 a 0.027,0.027 0 0 0 -0.005,-0.008 0.024,0.024 0 0 0 -0.01,-0.007 q -0.006,-0.002 -0.016,-0.002 -0.02,0 -0.045,0.012 l -0.007,-0.019 a 0.111,0.111 0 0 1 0.021,-0.008 0.126,0.126 0 0 1 0.005,-0.002 q 0.014,-0.003 0.028,-0.003 a 0.102,0.102 0 0 1 0.015,10e-4 q 0.008,9.99e-4 0.015,0.004 a 0.041,0.041 0 0 1 0.012,0.007 0.038,0.038 0 0 1 0.01,0.016 q 0.002,0.006 0.003,0.014 a 0.095,0.095 0 0 1 0.001,0.011 z m 0.155,-0.153001 -0.007,0.02 a 0.107,0.107 0 0 0 -0.012,-0.004 0.128,0.128 0 0 0 -0.005,-10e-4 0.1,0.1 0 0 0 -0.008,-0.001 q -0.005,-10e-4 -0.009,-10e-4 a 0.053,0.053 0 0 0 -0.022,0.004 q -0.027,0.012 -0.027,0.058 0,0.019 0.006,0.032 a 0.05,0.05 0 0 0 0.006,0.013 0.038,0.038 0 0 0 0.025,0.014 0.058,0.058 0 0 0 0.01,10e-4 0.101,0.101 0 0 0 0.028,-0.004 0.125,0.125 0 0 0 0.013,-0.004 v 0.021 a 0.069,0.069 0 0 1 -0.017,0.006 q -0.01,0.002 -0.023,0.002 a 0.09,0.09 0 0 1 -0.022,-0.002 0.061,0.061 0 0 1 -0.032,-0.019 0.07,0.07 0 0 1 -0.014,-0.027 q -0.003,-0.01 -0.004,-0.023 a 0.146,0.146 0 0 1 -0.001,-0.01 0.133,0.133 0 0 1 0.003,-0.024 q 0.002,-0.014 0.008,-0.024 a 0.066,0.066 0 0 1 0.009,-0.014 0.062,0.062 0 0 1 0.034,-0.019 0.095,0.095 0 0 1 0.02,-0.003 0.109,0.109 0 0 1 0.023,0.003 0.12,0.12 0 0 1 0.007,0.002 q 0.003,9.99e-4 0.006,0.002 a 0.048,0.048 0 0 1 0.005,0.002 z m -0.3829999,0.012 q -0.024,0 -0.035,0.014 a 0.041,0.041 0 0 0 -0.006,0.011 q -0.004,0.012 -0.005,0.029 a 0.186,0.186 0 0 0 0,0.008 0.159,0.159 0 0 0 0.001,0.016 q 0.002,0.021 0.01,0.032 0.01,0.013 0.031,0.014 a 0.077,0.077 0 0 0 0.005,0 0.048,0.048 0 0 0 0.014,-0.002 0.035,0.035 0 0 0 0.019,-0.014 q 0.011,-0.016 0.011,-0.047 a 0.142,0.142 0 0 0 -0.001,-0.016 q -0.002,-0.019 -0.01,-0.03 -0.011,-0.015 -0.034,-0.015 z m 0.2039999,0.078 v -0.015 l -0.024,0.001 a 0.177,0.177 0 0 0 -0.015,9.99e-4 q -0.014,0.002 -0.022,0.006 a 0.037,0.037 0 0 0 -0.005,0.002 0.026,0.026 0 0 0 -0.012,0.019 0.038,0.038 0 0 0 -0.001,0.006 0.034,0.034 0 0 0 0.001,0.008 q 0.002,0.007 0.007,0.012 a 0.026,0.026 0 0 0 0.01,0.005 q 0.004,10e-4 0.009,10e-4 a 0.054,0.054 0 0 0 0.003,0 0.066,0.066 0 0 0 0.015,-10e-4 q 0.01,-0.002 0.017,-0.008 a 0.04,0.04 0 0 0 0.004,-0.003 q 0.013,-0.012 0.013,-0.033999 z"
     inkscape:connector-curvature="0" />
  <path
     style="fill:none;stroke:#000000;stroke-width:0.00975515px;stroke-linecap:butt;stroke-linejoin:miter;stroke-opacity:1"
     d="m 22.31405,0.52680125 h 2.896"
     id="path6483"
     inkscape:connector-curvature="0" />
  <circle
     style="fill:none;fill-opacity:1;stroke:#000000;stroke-width:0.00318994;stroke-linecap:butt;stroke-miterlimit:4;stroke-dasharray:none;stroke-dashoffset:0;stroke-opacity:1;paint-order:fill markers stroke"
     id="path6497"
     cx="23.250801"
     cy="0.10767882"
     r="0.31240502" />
  <circle
     r="0.31240502"
     cy="0.10767882"
     cx="24.2733"
     id="circle6499"
     style="fill:none;fill-opacity:1;stroke:#000000;stroke-width:0.0031875;stroke-linecap:butt;stroke-miterlimit:4;stroke-dasharray:none;stroke-dashoffset:0;stroke-opacity:1;paint-order:fill markers stroke" />
  <rect
     style="fill:none;fill-opacity:1;stroke:#ff0000;stroke-width:0.0031875;stroke-linecap:butt;stroke-miterlimit:4;stroke-dasharray:none;stroke-dashoffset:0;stroke-opacity:1;paint-order:fill markers stroke"
     id="rect6533"
     width="0.10815194"
     height="0.10170696"
     x="23.25017"
     y="0.42248997" />
  <path
     inkscape:connector-curvature="0"
     style="font-size:12px;vector-effect:non-scaling-stroke;fill:none;fill-rule:evenodd;stroke:#ff0000;stroke-width:0.10000001;stroke-linecap:round"
     id="left_outsideCutPath"
     d="m 3.0190692,6.1409109 v -0.233 h 0.462 v 0.233 l 0.003,0.003 h 0.476 l 0.003,-0.003 v -0.233 h 0.462 v 0.233 l 0.003,0.003 h 0.496 l 0.003,-0.003 v -0.497 h 0.233 l 0.003,-0.003 V 5.1649108 l -0.003,-0.003 h -0.233 v -0.497 l -0.003,-0.003 h -0.496 l -0.003,0.003 v 0.233 h -0.462 v -0.233 l -0.003,-0.003 h -0.476 l -0.003,0.003 v 0.233 h -0.462 v -0.233 l -0.003,-0.003 h -0.496 l -0.003,0.003 v 0.497 h -0.233 l -0.003,0.003 v 0.4760001 l 0.003,0.003 h 0.233 v 0.497 l 0.003,0.003 h 0.496 z" />
  <path
     inkscape:connector-curvature="0"
     style="font-size:12px;vector-effect:non-scaling-stroke;fill:#777777;fill-rule:evenodd;stroke:#777777;stroke-width:0.25000001mm;stroke-linecap:round"
     id="left_labelLayer"
     d="m 3.8270692,5.3559108 v 0.019 h -0.04 v 0.1400001 h -0.024 V 5.3749108 h -0.028 v -0.011 l 0.028,-0.009 v -0.008 a 0.097,0.097 0 0 1 0.002,-0.022 q 0.007,-0.031 0.036,-0.036 a 0.073,0.073 0 0 1 0.013,-0.001 q 0.01,0 0.022,0.003 a 0.156,0.156 0 0 1 0.008,0.002 l -0.007,0.019 a 0.117,0.117 0 0 0 -0.009,-0.002 q -0.004,-0.001 -0.008,-0.002 a 0.052,0.052 0 0 0 -0.006,0 q -0.014,0 -0.02,0.009 a 0.028,0.028 0 0 0 -0.004,0.007 q -0.003,0.008 -0.003,0.018 a 0.114,0.114 0 0 0 0,0.004 v 0.01 z m -0.112,0.069 v 0.015 h -0.109 a 0.096,0.096 0 0 0 0.001,0.016 q 0.002,0.009 0.006,0.016 a 0.045,0.045 0 0 0 0.007,0.01 0.044,0.044 0 0 0 0.023,0.013 0.066,0.066 0 0 0 0.015,0.002 0.127,0.127 0 0 0 0.047,-0.01 0.145,0.145 0 0 0 0.003,-0.001 v 0.022 q -0.013,0.005 -0.024,0.007 -0.011,0.003 -0.027,0.003 -0.036,0 -0.056,-0.022 a 0.071,0.071 0 0 1 -0.017,-0.031 q -0.003,-0.011 -0.003,-0.024 a 0.137,0.137 0 0 1 0,-0.004 0.126,0.126 0 0 1 0.002,-0.025 q 0.003,-0.015 0.01,-0.027 a 0.071,0.071 0 0 1 0.007,-0.009 0.062,0.062 0 0 1 0.045,-0.022 0.085,0.085 0 0 1 0.005,-0.001 0.073,0.073 0 0 1 0.021,0.003 0.056,0.056 0 0 1 0.027,0.017 0.067,0.067 0 0 1 0.015,0.031 0.098,0.098 0 0 1 0.002,0.021 z m 0.208,0.071 a 0.131,0.131 0 0 1 -0.003,0.001 0.079,0.079 0 0 1 -0.012,10e-4 0.032,0.032 0 0 1 -0.005,0 0.022,0.022 0 0 1 -0.014,-0.008 0.023,0.023 0 0 1 -0.004,-0.005 q -10e-4,-0.004 -0.002,-0.008 a 0.048,0.048 0 0 1 -10e-4,-0.009 v -0.093 h 0.046 v -0.019 h -0.046 v -0.036 h -0.014 l -0.01,0.033 -0.023,0.01 v 0.012 h 0.023 v 0.094 q 0,0.038 0.028,0.046 a 0.063,0.063 0 0 0 0.018,0.003 q 0.007,0 0.014,-0.001 a 0.091,0.091 0 0 0 10e-4,-10e-4 q 0.005,0 0.008,-0.001 a 0.024,0.024 0 0 0 0.002,-0.002 v -0.018 m -0.39,-0.2050001 v 0.2250002 h -0.024 V 5.2899108 Z m 0.067,0.13 h 0.083 q 0,-0.015 -0.004,-0.025 a 0.037,0.037 0 0 0 -0.006,-0.009 0.033,0.033 0 0 0 -0.02,-0.012 0.049,0.049 0 0 0 -0.009,0 0.047,0.047 0 0 0 -0.014,0.001 0.037,0.037 0 0 0 -0.016,0.011 0.047,0.047 0 0 0 -0.01,0.016 q -0.002,0.006 -0.003,0.014 a 0.091,0.091 0 0 0 -0.001,0.004 z m 0.317,0.076 q 0.002,0 0.003,0 m 0,0 q 0.002,0 0.003,-10e-4" />
  <path
     inkscape:connector-curvature="0"
     style="font-size:12px;vector-effect:non-scaling-stroke;fill:none;fill-rule:evenodd;stroke:#ff0000;stroke-width:0.10000001;stroke-linecap:round"
     id="top_outsideCutPath"
     d="m 6.1730692,6.1409109 v -0.233 h 0.462 v 0.233 l 0.003,0.003 h 0.476 l 0.003,-0.003 v -0.233 h 0.164 l 0.003,-0.003 V 5.4159108 h 0.233 l 0.003,-0.003 v -0.476 l -0.003,-0.003 h -0.233 v -0.462 h 0.233 l 0.003,-0.003 V 3.9929109 l -0.003,-0.003 h -0.233 v -0.489 l -0.003,-0.003 h -0.164 V 3.2649108 l -0.003,-0.003 h -0.476 l -0.003,0.003 v 0.2330001 h -0.462 V 3.2649108 l -0.003,-0.003 h -0.476 l -0.003,0.003 v 0.2330001 h -0.164 l -0.003,0.003 v 0.489 h -0.233 l -0.003,0.003 v 0.4759999 l 0.003,0.003 h 0.233 v 0.462 h -0.233 l -0.003,0.003 v 0.476 l 0.003,0.003 h 0.233 v 0.4890001 l 0.003,0.003 h 0.164 v 0.233 l 0.003,0.003 h 0.476 z" />
  <path
     inkscape:connector-curvature="0"
     style="font-size:12px;vector-effect:non-scaling-stroke;fill:#777777;fill-rule:evenodd;stroke:#777777;stroke-width:0.25000001mm;stroke-linecap:round"
     id="top_labelLayer"
     d="m 6.5640692,4.7659108 h -0.002 q 0.002,0.021 0.002,0.039 v 0.099 h -0.036 v -0.346 h 0.03 l 0.005,0.032 h 10e-4 a 0.097,0.097 0 0 1 0.015,-0.016 0.075,0.075 0 0 1 0.018,-0.012 0.091,0.091 0 0 1 0.026,-0.008 0.117,0.117 0 0 1 0.016,-10e-4 0.111,0.111 0 0 1 0.032,0.004 0.082,0.082 0 0 1 0.042,0.029 q 0.021,0.026 0.025,0.07 a 0.236,0.236 0 0 1 0.001,0.021 0.212,0.212 0 0 1 -0.003,0.036 q -0.006,0.033 -0.024,0.055 a 0.086,0.086 0 0 1 -0.061,0.032 0.123,0.123 0 0 1 -0.012,10e-4 q -0.023,0 -0.042,-0.009 a 0.08,0.08 0 0 1 -0.033,-0.026 z m -0.353,10e-4 v 0.027 q -0.006,0.003 -0.017,0.005 a 0.157,0.157 0 0 1 -0.011,0.001 q -0.005,10e-4 -0.01,10e-4 -0.055,0 -0.067,-0.047 a 0.114,0.114 0 0 1 -0.002,-0.026 v -0.142 h -0.035 v -0.018 l 0.035,-0.015 0.015,-0.051 h 0.021 v 0.056 h 0.069 v 0.028 h -0.069 v 0.14 a 0.073,0.073 0 0 0 10e-4,0.013 q 0.002,0.013 0.009,0.02 0.01,0.012 0.028,0.012 a 0.119,0.119 0 0 0 0.018,-0.001 0.109,0.109 0 0 0 10e-4,0 0.195,0.195 0 0 0 0.005,-0.001 0.076,0.076 0 0 0 0.008,-0.002 z m 0.224,0.001 a 0.101,0.101 0 0 0 0.012,-0.016 q 0.018,-0.03 0.018,-0.075 a 0.213,0.213 0 0 0 0,-0.006 q -0.002,-0.053 -0.03,-0.084 a 0.095,0.095 0 0 0 -0.044,-0.029 0.122,0.122 0 0 0 -0.035,-0.005 0.141,0.141 0 0 0 -0.026,0.002 0.096,0.096 0 0 0 -0.055,0.031 q -0.03,0.032 -0.03,0.091 0,0.038 0.014,0.066 a 0.119,0.119 0 0 0 0.002,0.005 0.098,0.098 0 0 0 0.036,0.038 0.101,0.101 0 0 0 0.023,0.01 0.116,0.116 0 0 0 0.034,0.005 0.14,0.14 0 0 0 0.025,-0.002 0.096,0.096 0 0 0 0.056,-0.031 z m -0.152,-0.091 a 0.183,0.183 0 0 0 0.002,0.026 q 0.001,0.013 0.006,0.024 a 0.076,0.076 0 0 0 0.01,0.02 0.059,0.059 0 0 0 0.039,0.022 0.09,0.09 0 0 0 0.015,0.002 0.084,0.084 0 0 0 0.022,-0.003 0.058,0.058 0 0 0 0.032,-0.021 q 0.018,-0.024 0.018,-0.07 a 0.181,0.181 0 0 0 -0.001,-0.026 q -0.002,-0.013 -0.006,-0.024 a 0.075,0.075 0 0 0 -0.011,-0.019 0.06,0.06 0 0 0 -0.037,-0.022 0.091,0.091 0 0 0 -0.017,-0.002 0.086,0.086 0 0 0 -0.022,0.003 0.058,0.058 0 0 0 -0.032,0.02 0.075,0.075 0 0 0 -0.012,0.023 q -0.003,0.01 -0.005,0.023 a 0.191,0.191 0 0 0 -0.001,0.024 z m 0.281,-0.008 v 0.008 q 0,0.043 0.013,0.065 a 0.055,0.055 0 0 0 0.004,0.007 0.052,0.052 0 0 0 0.027,0.018 q 0.009,0.003 0.02,0.003 a 0.116,0.116 0 0 0 0.007,0.001 0.061,0.061 0 0 0 0.024,-0.005 q 0.014,-0.006 0.025,-0.02 a 0.087,0.087 0 0 0 0.012,-0.026 q 0.003,-0.012 0.004,-0.026 a 0.193,0.193 0 0 0 0.001,-0.018 0.183,0.183 0 0 0 -0.002,-0.025 q -0.003,-0.027 -0.015,-0.043 a 0.056,0.056 0 0 0 -0.042,-0.024 0.078,0.078 0 0 0 -0.008,0 q -0.036,0 -0.053,0.02 a 0.062,0.062 0 0 0 -0.009,0.018 q -0.007,0.018 -0.008,0.047 z m -0.362,0.1 q 0.002,-10e-4 0.005,-10e-4" />
  <path
     inkscape:connector-curvature="0"
     style="font-size:12px;vector-effect:non-scaling-stroke;fill:none;fill-rule:evenodd;stroke:#ff0000;stroke-width:0.10000001;stroke-linecap:round"
     id="right_outsideCutPath"
     d="m 3.0190692,4.5339108 v -0.233 h 0.462 v 0.233 l 0.003,0.003 h 0.476 l 0.003,-0.003 v -0.233 h 0.462 v 0.233 l 0.003,0.003 h 0.496 l 0.003,-0.003 v -0.497 h 0.233 l 0.003,-0.003 V 3.5579109 l -0.003,-0.003 h -0.233 V 3.0579108 l -0.003,-0.003 h -0.496 l -0.003,0.003 v 0.233 h -0.462 v -0.233 l -0.003,-0.003 h -0.476 l -0.003,0.003 v 0.233 h -0.462 v -0.233 l -0.003,-0.003 h -0.496 l -0.003,0.003 v 0.4970001 h -0.233 l -0.003,0.003 v 0.4759999 l 0.003,0.003 h 0.233 v 0.497 l 0.003,0.003 h 0.496 z" />
  <path
     inkscape:connector-curvature="0"
     style="font-size:12px;vector-effect:non-scaling-stroke;fill:#777777;fill-rule:evenodd;stroke:#777777;stroke-width:0.25000001mm;stroke-linecap:round"
     id="right_labelLayer"
     d="m 3.9060692,3.8729109 h -0.024 v -0.103 a 0.068,0.068 0 0 0 0,-0.01 q -0.002,-0.012 -0.009,-0.019 a 0.027,0.027 0 0 0 -0.011,-0.007 q -0.004,-0.001 -0.009,-0.002 a 0.064,0.064 0 0 0 -0.007,0 0.073,0.073 0 0 0 -0.014,10e-4 q -0.007,0.002 -0.013,0.005 a 0.034,0.034 0 0 0 -0.01,0.007 q -0.01,0.013 -0.011,0.04 a 0.155,0.155 0 0 0 0,0.005 v 0.083 h -0.024 v -0.225 h 0.024 v 0.068 a 0.216,0.216 0 0 1 0,0.008 q -10e-4,0.007 -10e-4,0.012 h 10e-4 a 0.048,0.048 0 0 1 0.017,-0.016 0.059,0.059 0 0 1 0.003,-0.002 0.062,0.062 0 0 1 0.02,-0.006 0.078,0.078 0 0 1 0.01,0 0.097,0.097 0 0 1 0.017,10e-4 q 0.008,0.002 0.015,0.005 a 0.043,0.043 0 0 1 0.012,0.008 q 0.011,0.01 0.014,0.031 a 0.104,0.104 0 0 1 0,0.013 z m -0.22,-0.159 h 0.055 v 0.016 l -0.029,0.003 q 0.004,0.005 0.007,0.013 0.003,0.008 0.003,0.019 a 0.055,0.055 0 0 1 -0.002,0.017 0.045,0.045 0 0 1 -0.014,0.02 0.053,0.053 0 0 1 -0.021,0.011 q -0.008,0.002 -0.017,0.003 a 0.104,0.104 0 0 1 -0.005,0 q -0.008,0 -0.014,-10e-4 -0.008,0.004 -0.012,0.01 a 0.018,0.018 0 0 0 -0.003,0.01 0.012,0.012 0 0 0 10e-4,0.004 0.01,0.01 0 0 0 0.004,0.006 0.017,0.017 0 0 0 0.004,10e-4 q 0.005,0.002 0.015,0.002 h 0.028 q 0.026,0 0.039,0.011 a 0.035,0.035 0 0 1 0.013,0.022 0.053,0.053 0 0 1 10e-4,0.009 0.052,0.052 0 0 1 -0.003,0.018 0.044,0.044 0 0 1 -0.017,0.022 q -0.016,0.01 -0.04,0.013 a 0.19,0.19 0 0 1 -0.023,10e-4 0.135,0.135 0 0 1 -0.018,-10e-4 q -0.009,-0.001 -0.016,-0.004 a 0.056,0.056 0 0 1 -0.014,-0.006 0.038,0.038 0 0 1 -0.012,-0.014 q -0.004,-0.008 -0.004,-0.019 a 0.037,0.037 0 0 1 0.009,-0.025 0.042,0.042 0 0 1 0.014,-0.011 0.059,0.059 0 0 1 0.012,-0.003 0.025,0.025 0 0 1 -0.01,-0.008 0.022,0.022 0 0 1 -0.004,-0.013 0.027,0.027 0 0 1 0,-10e-4 0.027,0.027 0 0 1 10e-4,-0.009 0.024,0.024 0 0 1 0.003,-0.007 0.034,0.034 0 0 1 0.005,-0.005 q 0.004,-0.004 0.01,-0.007 a 0.042,0.042 0 0 1 -0.019,-0.015 0.052,0.052 0 0 1 -10e-4,-0.002 0.05,0.05 0 0 1 -0.008,-0.024 0.061,0.061 0 0 1 0,-0.004 0.069,0.069 0 0 1 0.002,-0.017 0.046,0.046 0 0 1 0.014,-0.023 q 0.013,-0.013 0.036,-0.014 a 0.106,0.106 0 0 1 0.008,-10e-4 q 0.012,0 0.022,0.003 z m 0.337,0.141 a 0.131,0.131 0 0 1 -0.004,0 0.079,0.079 0 0 1 -0.012,10e-4 0.032,0.032 0 0 1 -0.005,0 0.022,0.022 0 0 1 -0.014,-0.008 0.023,0.023 0 0 1 -0.003,-0.005 q -0.002,-0.003 -0.003,-0.008 a 0.048,0.048 0 0 1 -0.001,-0.009 v -0.093 h 0.046 v -0.019 h -0.046 v -0.036 h -0.013 l -0.011,0.033 -0.022,0.01 v 0.012 h 0.022 v 0.094 q 0,0.038 0.028,0.046 a 0.063,0.063 0 0 0 0.018,0.003 q 0.007,0 0.014,-10e-4 a 0.091,0.091 0 0 0 0.002,-0.001 q 0.004,0 0.007,-10e-4 a 0.024,0.024 0 0 0 0.003,-10e-4 v -0.019 m -0.522,-0.14 -0.004,0.023 q -0.009,-0.003 -0.017,-0.003 a 0.042,0.042 0 0 0 -0.031,0.014 0.057,0.057 0 0 0 -0.002,0.002 0.055,0.055 0 0 0 -0.013,0.031 0.073,0.073 0 0 0 -10e-4,0.008 v 0.085 h -0.024 v -0.159 h 0.02 l 0.003,0.03 h 10e-4 q 0.009,-0.016 0.021,-0.024 a 0.048,0.048 0 0 1 0.028,-0.009 0.11,0.11 0 0 1 0.01,10e-4 0.08,0.08 0 0 1 0.009,10e-4 z m 0.053,0.001 v 0.159 h -0.024 v -0.159 z m 0.118,0.155 h -0.029 q -0.016,0 -0.025,0.008 a 0.025,0.025 0 0 0 -0.009,0.015 0.038,0.038 0 0 0 0,0.008 0.024,0.024 0 0 0 10e-4,0.009 q 0.003,0.005 0.008,0.009 a 0.028,0.028 0 0 0 0.002,0.001 q 0.007,0.005 0.019,0.006 a 0.098,0.098 0 0 0 0.011,10e-4 0.161,0.161 0 0 0 0.016,-10e-4 q 0.016,-10e-4 0.026,-0.006 a 0.04,0.04 0 0 0 0.003,-0.002 0.035,0.035 0 0 0 0.009,-0.007 0.026,0.026 0 0 0 0.006,-0.018 0.033,0.033 0 0 0 -0.001,-0.006 q 0,-0.004 -0.002,-0.007 a 0.015,0.015 0 0 0 -0.005,-0.005 0.023,0.023 0 0 0 -0.005,-0.002 q -0.009,-0.003 -0.025,-0.003 z m -0.05,-0.104 a 0.047,0.047 0 0 0 10e-4,0.01 q 0.002,0.01 0.008,0.015 0.009,0.008 0.023,0.009 a 0.062,0.062 0 0 0 0.003,0 q 0.035,0 0.035,-0.034 0,-0.036 -0.035,-0.036 a 0.05,0.05 0 0 0 -0.01,0.001 q -0.007,10e-4 -0.011,0.004 a 0.028,0.028 0 0 0 -0.005,0.004 q -0.008,0.008 -0.009,0.022 a 0.063,0.063 0 0 0 0,0.005 z m -0.09,-0.106 a 0.011,0.011 0 0 0 -0.002,0.004 q -0.002,0.003 -0.002,0.008 a 0.028,0.028 0 0 0 0,0.003 q 0.001,0.006 0.004,0.009 a 0.013,0.013 0 0 0 0.005,0.004 0.015,0.015 0 0 0 0.006,0 0.014,0.014 0 0 0 0.01,-0.004 q 0.004,-0.004 0.004,-0.012 a 0.028,0.028 0 0 0 0,-0.002 q -0.001,-0.006 -0.004,-0.01 a 0.014,0.014 0 0 0 -0.01,-0.004 0.018,0.018 0 0 0 -0.002,10e-4 0.014,0.014 0 0 0 -0.009,0.003 z m 0.485,0.196 q 10e-4,-0.001 0.003,-0.001 m 0,0 q 10e-4,0 0.002,-10e-4" />
  <g
     id="g7299"
     transform="translate(-8.036426,-4.0799176)">
    <rect
       style="fill:none;fill-opacity:1;stroke:#ff0000;stroke-width:0.01041667;stroke-linecap:butt;stroke-miterlimit:4;stroke-dasharray:none;stroke-dashoffset:0;stroke-opacity:1;paint-order:fill markers stroke"
       id="rect7287"
       width="0.41984481"
       height="1.2889971"
       x="14.124173"
       y="8.1383295" />
    <g
       transform="translate(-0.01791788,3.4930469)"
       id="g7293">
      <circle
         style="fill:none;fill-opacity:1;stroke:#ff2a2a;stroke-width:0.00160989;stroke-linecap:butt;stroke-miterlimit:4;stroke-dasharray:none;stroke-dashoffset:0;stroke-opacity:1;paint-order:fill markers stroke"
         id="circle7289"
         cx="13.909669"
         cy="4.383801"
         r="0.059195053" />
      <circle
         r="0.059195053"
         cy="6.1957622"
         cx="15.007157"
         id="circle7291"
         style="fill:none;fill-opacity:1;stroke:#ff2a2a;stroke-width:0.00160989;stroke-linecap:butt;stroke-miterlimit:4;stroke-dasharray:none;stroke-dashoffset:0;stroke-opacity:1;paint-order:fill markers stroke" />
    </g>
  </g>
  <path
     d="m 6.1042612,2.9853275 v -0.233 h 0.462 v 0.233 l 0.003,0.003 h 0.476 l 0.003,-0.003 v -0.233 h 0.164 l 0.003,-0.003 v -0.489 h 0.233 l 0.003,-0.003 v -0.476 l -0.003,-0.003 h -0.233 v -0.462 h 0.233 l 0.003,-0.003 V 0.83732754 l -0.003,-0.003 h -0.233 v -0.489 l -0.003,-0.003 h -0.164 V 0.10932756 l -0.003,-0.003 h -0.476 l -0.003,0.003 v 0.23299998 h -0.462 V 0.10932756 l -0.003,-0.003 h -0.476 l -0.003,0.003 v 0.23299998 h -0.164 l -0.003,0.003 v 0.489 h -0.233 l -0.003,0.003 V 1.3133275 l 0.003,0.003 h 0.233 v 0.462 h -0.233 l -0.003,0.003 v 0.476 l 0.003,0.003 h 0.233 v 0.489 l 0.003,0.003 h 0.164 v 0.233 l 0.003,0.003 h 0.476 z"
     id="path7301"
     style="font-size:12px;vector-effect:non-scaling-stroke;fill:none;fill-rule:evenodd;stroke:#ff0000;stroke-width:0.10000001;stroke-linecap:round;stroke-miterlimit:4;stroke-dasharray:none"
     inkscape:connector-curvature="0" />
  <path
     d="m 7.0692612,1.7143275 h -0.036 v -0.155 q 0,-0.029 -0.012,-0.043 -0.012,-0.014 -0.038,-0.014 a 0.093,0.093 0 0 0 -0.019,0.002 q -0.011,0.002 -0.02,0.007 a 0.048,0.048 0 0 0 -0.011,0.01 0.06,0.06 0 0 0 -0.01,0.019 q -0.003,0.008 -0.005,0.019 a 0.159,0.159 0 0 0 -10e-4,0.022 v 0.133 h -0.036 v -0.155 q 0,-0.029 -0.012,-0.043 -0.011,-0.012 -0.032,-0.014 a 0.085,0.085 0 0 0 -0.007,0 q -0.023,0 -0.038,0.01 a 0.047,0.047 0 0 0 -0.011,0.01 0.061,0.061 0 0 0 -0.009,0.017 q -0.006,0.017 -0.007,0.042 a 0.252,0.252 0 0 0 0,0.008 v 0.125 h -0.036 v -0.238 h 0.029 l 0.006,0.032 h 0.002 q 0.01,-0.017 0.029,-0.027 a 0.086,0.086 0 0 1 0.034,-0.01 0.104,0.104 0 0 1 0.007,0 q 0.035,0 0.055,0.016 a 0.062,0.062 0 0 1 0.019,0.025 h 0.001 a 0.076,0.076 0 0 1 0.029,-0.029 0.09,0.09 0 0 1 0.002,-10e-4 0.092,0.092 0 0 1 0.034,-0.01 0.114,0.114 0 0 1 0.012,-0.001 0.126,0.126 0 0 1 0.023,0.002 q 0.024,0.004 0.038,0.019 a 0.062,0.062 0 0 1 0.014,0.022 q 0.003,0.009 0.005,0.021 a 0.166,0.166 0 0 1 10e-4,0.024 z m -1.432,-0.03 h -0.003 l -0.007,0.03 h -0.026 v -0.339 h 0.036 v 0.083 a 0.75400001,0.75400001 0 0 1 -0.001,0.025 q 0,0.013 -10e-4,0.024 h 0.002 a 0.082,0.082 0 0 1 0.06,-0.035 0.124,0.124 0 0 1 0.015,0 q 0.047,0 0.073,0.032 0.026,0.032 0.026,0.091 a 0.212,0.212 0 0 1 -0.003,0.035 q -0.006,0.034 -0.023,0.056 a 0.086,0.086 0 0 1 -0.061,0.032 0.123,0.123 0 0 1 -0.012,10e-4 q -0.023,0 -0.043,-0.009 a 0.08,0.08 0 0 1 -0.032,-0.026 z m 0.617,0.001 v 0.027 q -0.006,0.003 -0.018,0.005 a 0.157,0.157 0 0 1 -0.01,0.001 q -0.005,10e-4 -0.01,10e-4 -0.056,0 -0.067,-0.047 a 0.114,0.114 0 0 1 -0.003,-0.026 v -0.142 h -0.034 v -0.018 l 0.034,-0.015 0.016,-0.051 h 0.021 v 0.056 h 0.069 v 0.028 h -0.069 v 0.14 a 0.073,0.073 0 0 0 0.001,0.013 q 0.002,0.012 0.009,0.02 0.01,0.012 0.028,0.012 a 0.119,0.119 0 0 0 0.017,-0.001 0.109,0.109 0 0 0 0.002,-10e-4 0.195,0.195 0 0 0 0.005,0 0.076,0.076 0 0 0 0.008,-0.002 z m 0.157,0 v 0.027 q -0.006,0.003 -0.017,0.005 a 0.157,0.157 0 0 1 -0.01,0.001 q -0.006,10e-4 -0.011,10e-4 -0.055,0 -0.066,-0.047 a 0.114,0.114 0 0 1 -0.003,-0.026 v -0.142 h -0.034 v -0.018 l 0.034,-0.015 0.015,-0.051 h 0.021 v 0.056 h 0.07 v 0.028 h -0.07 v 0.14 a 0.073,0.073 0 0 0 0.001,0.013 q 0.003,0.012 0.009,0.02 0.011,0.012 0.029,0.012 a 0.119,0.119 0 0 0 0.017,-0.001 0.109,0.109 0 0 0 0.001,-10e-4 0.195,0.195 0 0 0 0.005,0 0.076,0.076 0 0 0 0.009,-0.002 z m -0.36,10e-4 a 0.101,0.101 0 0 0 0.012,-0.017 q 0.017,-0.029 0.017,-0.074 a 0.213,0.213 0 0 0 0,-0.006 q -10e-4,-0.053 -0.029,-0.085 a 0.095,0.095 0 0 0 -0.044,-0.028 0.122,0.122 0 0 0 -0.036,-0.005 0.141,0.141 0 0 0 -0.025,0.002 0.096,0.096 0 0 0 -0.056,0.031 q -0.029,0.032 -0.029,0.091 0,0.037 0.013,0.066 a 0.119,0.119 0 0 0 0.003,0.005 0.098,0.098 0 0 0 0.036,0.038 0.101,0.101 0 0 0 0.023,0.01 0.116,0.116 0 0 0 0.034,0.005 0.14,0.14 0 0 0 0.024,-0.002 0.096,0.096 0 0 0 0.057,-0.031 z m 0.585,0 a 0.101,0.101 0 0 0 0.012,-0.017 q 0.017,-0.029 0.017,-0.074 a 0.213,0.213 0 0 0 0,-0.006 q -10e-4,-0.053 -0.029,-0.085 a 0.095,0.095 0 0 0 -0.044,-0.028 0.122,0.122 0 0 0 -0.036,-0.005 0.141,0.141 0 0 0 -0.025,0.002 0.096,0.096 0 0 0 -0.056,0.031 q -0.029,0.032 -0.029,0.091 0,0.037 0.013,0.066 a 0.119,0.119 0 0 0 0.003,0.005 0.098,0.098 0 0 0 0.036,0.038 0.101,0.101 0 0 0 0.023,0.01 0.116,0.116 0 0 0 0.033,0.005 0.14,0.14 0 0 0 0.025,-0.002 0.096,0.096 0 0 0 0.057,-0.031 z m -0.738,-0.091 a 0.183,0.183 0 0 0 0.002,0.026 q 0.002,0.013 0.006,0.024 a 0.076,0.076 0 0 0 0.011,0.019 0.059,0.059 0 0 0 0.038,0.023 0.09,0.09 0 0 0 0.016,10e-4 0.084,0.084 0 0 0 0.022,-0.002 0.058,0.058 0 0 0 0.032,-0.021 q 0.018,-0.024 0.018,-0.07 a 0.181,0.181 0 0 0 -0.002,-0.026 q -0.002,-0.013 -0.006,-0.024 a 0.075,0.075 0 0 0 -0.01,-0.019 0.06,0.06 0 0 0 -0.038,-0.023 0.091,0.091 0 0 0 -0.017,-10e-4 0.086,0.086 0 0 0 -0.021,0.002 0.058,0.058 0 0 0 -0.033,0.021 0.075,0.075 0 0 0 -0.011,0.023 q -0.004,0.01 -0.005,0.023 a 0.191,0.191 0 0 0 -0.002,0.024 z m 0.585,0 a 0.183,0.183 0 0 0 0.002,0.026 q 0.002,0.013 0.006,0.024 a 0.076,0.076 0 0 0 0.011,0.019 0.059,0.059 0 0 0 0.038,0.023 0.09,0.09 0 0 0 0.015,10e-4 0.084,0.084 0 0 0 0.023,-0.002 0.058,0.058 0 0 0 0.031,-0.021 q 0.019,-0.024 0.019,-0.07 a 0.181,0.181 0 0 0 -0.002,-0.026 q -0.002,-0.013 -0.006,-0.024 a 0.075,0.075 0 0 0 -0.011,-0.019 0.06,0.06 0 0 0 -0.037,-0.023 0.091,0.091 0 0 0 -0.017,-10e-4 0.086,0.086 0 0 0 -0.022,0.002 0.058,0.058 0 0 0 -0.032,0.021 0.075,0.075 0 0 0 -0.011,0.023 q -0.004,0.01 -0.005,0.023 a 0.191,0.191 0 0 0 -0.002,0.024 z m -0.776,-0.093 q -0.037,0 -0.054,0.021 a 0.062,0.062 0 0 0 -0.009,0.017 q -0.007,0.021 -0.007,0.055 0,0.042 0.012,0.065 a 0.055,0.055 0 0 0 0.005,0.007 0.052,0.052 0 0 0 0.026,0.018 q 0.009,0.003 0.02,0.003 a 0.116,0.116 0 0 0 0.007,0 0.072,0.072 0 0 0 0.021,-0.002 0.052,0.052 0 0 0 0.029,-0.022 0.083,0.083 0 0 0 0.01,-0.022 q 0.004,-0.011 0.005,-0.023 a 0.207,0.207 0 0 0 0.002,-0.025 0.214,0.214 0 0 0 -0.002,-0.024 q -0.003,-0.029 -0.015,-0.045 a 0.053,0.053 0 0 0 -0.033,-0.021 0.084,0.084 0 0 0 -0.017,-0.002 z m 0.538,0.185 q 0.002,-0.001 0.004,-0.001 m 0.153,0.001 q 0.003,-0.001 0.005,-0.001"
     id="path7303"
     style="font-size:12px;vector-effect:non-scaling-stroke;fill:#777777;fill-rule:evenodd;stroke:#777777;stroke-width:0.25000001mm;stroke-linecap:round"
     inkscape:connector-curvature="0" />
  <g
     transform="rotate(-90,4.4965223,-1.3136936)"
     id="g7343">
    <circle
       r="0.31787708"
       cy="0.87371117"
       cx="1.124252"
       id="circle7339"
       style="fill:none;fill-opacity:1;stroke:#ff0000;stroke-width:0.00324582;stroke-linecap:butt;stroke-miterlimit:4;stroke-dasharray:none;stroke-dashoffset:0;stroke-opacity:1;paint-order:fill markers stroke" />
    <circle
       style="fill:none;fill-opacity:1;stroke:#ff0000;stroke-width:0.00324582;stroke-linecap:butt;stroke-miterlimit:4;stroke-dasharray:none;stroke-dashoffset:0;stroke-opacity:1;paint-order:fill markers stroke"
       id="circle7341"
       cx="2.1467495"
       cy="0.87371117"
       r="0.31787708" />
  </g>
</svg>
